<svg viewBox="0 0 800 600" xmlns="http://www.w3.org/2000/svg" role="img" aria-label="A moonlit forest with soft glowing trees">
  <defs>
    <linearGradient id="sky" x1="0" y1="0" x2="0" y2="1">
      <stop offset="0%" stop-color="#2b2b5a" />
      <stop offset="100%" stop-color="#4a4a8a" />
    </linearGradient>
  </defs>
  <rect width="800" height="600" fill="url(#sky)" />
  <circle cx="650" cy="110" r="60" fill="#fff7d6" opacity="0.9" />
  <circle cx="120" cy="90" r="3" fill="#ffffff" opacity="0.8" />
  <circle cx="220" cy="150" r="2" fill="#ffffff" opacity="0.7" />
  <circle cx="500" cy="70" r="2" fill="#ffffff" opacity="0.7" />
  <circle cx="380" cy="130" r="3" fill="#ffffff" opacity="0.6" />
  <g fill="#1f2438">
    <polygon points="80,600 160,300 240,600" />
    <polygon points="220,600 300,260 380,600" />
    <polygon points="340,600 420,320 500,600" />
    <polygon points="460,600 540,280 620,600" />
    <polygon points="580,600 660,310 740,600" />
  </g>
  <circle cx="160" cy="340" r="10" fill="#ffcf7a" opacity="0.8" />
  <circle cx="420" cy="360" r="8" fill="#ffcf7a" opacity="0.7" />
  <circle cx="620" cy="350" r="9" fill="#ffcf7a" opacity="0.75" />
</svg>
